<svg version="1.1" id="Layer_1" xmlns="http://www.w3.org/2000/svg" xmlns:xlink="http://www.w3.org/1999/xlink" x="0px" y="0px"
	 width="100%" viewBox="0 0 110 111" enable-background="new 0 0 110 111" xml:space="preserve">
<path fill="#FF3000" opacity="1.000000" stroke="none" 
	d="
M77.000000,112.000000 
	C51.333332,112.000000 26.166666,112.000000 1.000000,112.000000 
	C1.000000,75.000000 1.000000,38.000000 1.000000,1.000000 
	C37.666668,1.000000 74.333336,1.000000 111.000000,1.000000 
	C111.000000,38.000000 111.000000,75.000000 111.000000,112.000000 
	C99.833336,112.000000 88.666664,112.000000 77.000000,112.000000 
M28.725395,84.878738 
	C38.376617,84.878746 48.035011,84.648643 57.676861,84.949272 
	C65.854546,85.204247 71.593315,79.884666 77.935020,76.311089 
	C80.316994,74.968819 80.654030,70.240036 82.265816,67.239098 
	C85.853462,60.559319 84.709106,55.036594 78.730721,50.434006 
	C78.552139,50.296516 78.636482,49.817490 78.576752,49.317986 
	C80.556168,48.230724 82.506691,46.907829 84.642242,46.040577 
	C88.640755,44.416763 90.945328,41.702599 92.043571,37.455353 
	C93.497047,31.834343 91.128174,28.161560 85.383232,28.131767 
	C77.396263,28.090342 69.374794,28.582499 61.431099,27.994720 
	C53.075630,27.376472 46.113434,30.164549 38.737942,33.635525 
	C29.718445,37.880188 30.097816,46.462601 27.981592,53.656002 
	C27.414545,55.583485 32.237240,59.089855 34.564510,61.888977 
	C34.740459,62.100609 34.746525,62.453480 34.914127,63.019569 
	C31.327576,64.978012 27.025448,66.303391 24.268480,69.133827 
	C21.743841,71.725754 19.505980,76.031052 19.720587,79.417938 
	C19.902834,82.294098 22.965765,86.184914 28.725395,84.878738 
z"/>
<path fill="#0D0605" opacity="1.000000" stroke="none" 
	d="
M28.258461,84.878693 
	C22.965765,86.184914 19.902834,82.294098 19.720587,79.417938 
	C19.505980,76.031052 21.743841,71.725754 24.268480,69.133827 
	C27.025448,66.303391 31.327576,64.978012 34.914127,63.019569 
	C34.746525,62.453480 34.740459,62.100609 34.564510,61.888977 
	C32.237240,59.089855 27.414545,55.583485 27.981592,53.656002 
	C30.097816,46.462601 29.718445,37.880188 38.737942,33.635525 
	C46.113434,30.164549 53.075630,27.376472 61.431099,27.994720 
	C69.374794,28.582499 77.396263,28.090342 85.383232,28.131767 
	C91.128174,28.161560 93.497047,31.834343 92.043571,37.455353 
	C90.945328,41.702599 88.640755,44.416763 84.642242,46.040577 
	C82.506691,46.907829 80.556168,48.230724 78.576752,49.317986 
	C78.636482,49.817490 78.552139,50.296516 78.730721,50.434006 
	C84.709106,55.036594 85.853462,60.559319 82.265816,67.239098 
	C80.654030,70.240036 80.316994,74.968819 77.935020,76.311089 
	C71.593315,79.884666 65.854546,85.204247 57.676861,84.949272 
	C48.035011,84.648643 38.376617,84.878746 28.258461,84.878693 
M84.978378,31.866610 
	C76.978722,31.858274 68.951469,32.260468 60.987255,31.725002 
	C53.177521,31.199926 46.525742,33.398495 39.723236,37.021763 
	C32.864662,40.674900 33.536510,47.591957 31.566669,53.191498 
	C31.084606,54.561836 35.389019,57.903877 37.848282,59.901829 
	C39.112816,60.929157 41.142387,61.334469 42.857349,61.423805 
	C46.929214,61.635929 51.019627,61.492069 55.102543,61.492069 
	C55.208237,62.100903 55.313931,62.709736 55.419628,63.318569 
	C54.040398,63.714787 52.601295,64.592133 51.291649,64.429169 
	C42.765621,63.368217 35.360332,65.975418 28.230816,70.433121 
	C25.240391,72.302879 23.489586,74.245491 23.844803,77.993179 
	C31.800802,77.993179 39.652596,77.611351 47.450092,78.098549 
	C55.549931,78.604645 62.541935,76.572067 69.677818,72.701553 
	C75.059258,69.782654 75.488853,65.073654 77.067566,60.570183 
	C79.161491,54.597019 78.988541,54.326977 71.321518,49.155605 
	C70.197365,48.397369 68.587799,48.101864 67.187981,48.057121 
	C62.876373,47.919315 58.557564,48.006882 54.241554,48.006882 
	C54.112724,47.477108 53.983898,46.947330 53.855068,46.417557 
	C55.378216,45.942776 56.975681,44.899036 58.412304,45.086681 
	C66.951698,46.202087 74.318687,43.430264 81.456055,39.111877 
	C84.290459,37.396950 86.183372,35.608608 84.978378,31.866610 
z"/>
<path fill="#FAFAFA" opacity="1.000000" stroke="none" 
	d="
M85.395042,32.000988 
	C86.183372,35.608608 84.290459,37.396950 81.456055,39.111877 
	C74.318687,43.430264 66.951698,46.202087 58.412304,45.086681 
	C56.975681,44.899036 55.378216,45.942776 53.855068,46.417557 
	C53.983898,46.947330 54.112724,47.477108 54.241554,48.006882 
	C58.557564,48.006882 62.876373,47.919315 67.187981,48.057121 
	C68.587799,48.101864 70.197365,48.397369 71.321518,49.155605 
	C78.988541,54.326977 79.161491,54.597019 77.067566,60.570183 
	C75.488853,65.073654 75.059258,69.782654 69.677818,72.701553 
	C62.541935,76.572067 55.549931,78.604645 47.450092,78.098549 
	C39.652596,77.611351 31.800802,77.993179 23.844803,77.993179 
	C23.489586,74.245491 25.240391,72.302879 28.230816,70.433121 
	C35.360332,65.975418 42.765621,63.368217 51.291649,64.429169 
	C52.601295,64.592133 54.040398,63.714787 55.419628,63.318569 
	C55.313931,62.709736 55.208237,62.100903 55.102543,61.492069 
	C51.019627,61.492069 46.929214,61.635929 42.857349,61.423805 
	C41.142387,61.334469 39.112816,60.929157 37.848282,59.901829 
	C35.389019,57.903877 31.084606,54.561836 31.566669,53.191498 
	C33.536510,47.591957 32.864662,40.674900 39.723236,37.021763 
	C46.525742,33.398495 53.177521,31.199926 60.987255,31.725002 
	C68.951469,32.260468 76.978722,31.858274 85.395042,32.000988 
z"/>
</svg>