<svg width="639" height="363" viewBox="0 0 639 363" fill="none" xmlns="http://www.w3.org/2000/svg">
<path d="M0 9.41091C4.88724 1.00008 11.8773 -0.397076 21.1586 1.42085C70.5753 11.1056 120.536 16.7291 170.707 20.795C241.696 26.5464 312.804 28.6154 383.917 25.4282C432.487 23.2523 481.022 19.2863 529.415 14.523C559.967 11.5148 590.23 5.5821 620.614 0.91639C626.427 0.0236982 631.894 0.186428 635.995 5.18225C640.058 10.1339 639.507 15.411 637.248 20.995C628.995 41.3874 620.812 61.8054 612.766 82.2792C610.063 89.158 605.657 93.031 597.995 93.5448C578.702 94.8373 559.432 96.4739 540.153 97.9826C538.127 98.1407 536.103 98.3592 533.395 98.615C534.558 119.054 535.7 139.093 536.894 160.039C543.081 160.039 549.039 160.027 554.998 160.041C560.823 160.055 566.657 159.871 572.465 160.176C580.46 160.594 585.466 165.216 585.599 173.113C585.896 190.983 585.922 208.867 585.585 226.737C585.426 235.099 579.925 239.556 570.507 239.837C563.233 240.053 555.947 239.886 548.666 239.89C546.633 239.89 544.603 239.89 541.932 239.89C542.388 248.32 542.749 256.131 543.239 263.93C548.473 346.897 553.714 429.864 558.985 512.829C559.925 527.611 555.445 532.458 540.518 532.47C525.54 532.482 510.564 532.542 495.586 532.447C484.404 532.377 479.957 527.886 479.247 516.618C474.406 439.874 469.521 363.131 464.674 286.387C463.718 271.249 462.848 256.105 461.908 240.434H177.378C176.531 253.171 175.631 266.153 174.812 279.139C171.602 329.955 168.418 380.773 165.224 431.591C163.451 459.802 161.651 488.007 159.925 516.22C159.19 528.244 154.903 532.417 142.714 532.458C127.322 532.51 111.927 532.528 96.5352 532.451C84.4415 532.391 79.3333 527.126 80.0823 515.095C83.5599 459.088 87.1631 403.09 90.7035 347.088C92.8785 312.656 95.0208 278.223 97.1679 243.789C97.2307 242.787 97.1749 241.778 97.1749 239.886C88.4332 239.886 79.9869 239.904 71.5384 239.881C57.7839 239.844 53.3712 235.392 53.3549 221.525C53.3363 206.556 53.2967 191.59 53.3712 176.621C53.4293 164.674 58.0211 160.129 70.0264 160.053C80.5871 159.985 91.1478 160.039 102.223 160.039C103.423 139.351 104.586 119.307 105.789 98.5731C92.8203 97.5386 80.2498 96.5274 67.677 95.537C58.9702 94.8512 50.2727 93.9748 41.5543 93.5866C33.6477 93.2356 29.0908 89.2254 26.2948 82.0723C18.0602 61.008 9.57908 40.0367 1.17703 19.0352C0.876958 18.2867 0.397771 17.6079 0 16.8965C0 14.4021 0 11.9053 0 9.41091ZM182.279 159.537H279.31V106.486C248.028 105.433 217.053 104.39 185.62 103.332C184.489 122.353 183.396 140.743 182.279 159.537ZM359.909 106.493V159.611H456.932C455.772 140.611 454.639 122.069 453.494 103.318C421.849 104.392 391 105.438 359.906 106.491L359.909 106.493Z" fill="url(#paint0_linear_2326_701)"/>
<defs>
<linearGradient id="paint0_linear_2326_701" x1="319.5" y1="0.497681" x2="319.5" y2="532.503" gradientUnits="userSpaceOnUse">
<stop stop-color="#D5B77A"/>
<stop offset="1" stop-color="#D5B77A" stop-opacity="0"/>
</linearGradient>
</defs>
</svg>
