<svg width="27" height="28" viewBox="0 0 27 28" fill="none" xmlns="http://www.w3.org/2000/svg">
<path d="M12.4135 13.3335L9.67395 15.7368L11.9766 21.912L11.9769 21.913L11.9772 21.9139L11.9816 21.9257L12.4185 23.1077L11.1927 22.8111L11.1822 22.8085C9.41919 22.3935 7.80148 21.498 6.50401 20.2186L6.50294 20.2177L6.502 20.2167L6.4614 20.1763L6.46086 20.1758L6.46032 20.1752C4.61838 18.3351 3.6039 15.8966 3.6039 13.3087C3.6039 11.2263 4.25499 9.24305 5.48672 7.57299C5.79445 7.15557 6.13632 6.76059 6.5028 6.39891C7.27637 5.63552 8.15398 5.01303 9.11845 4.54297L7.91791 1.18591C6.72127 1.72178 5.61309 2.42648 4.61636 3.28656L4.58262 3.31583C3.88044 3.92517 3.24051 4.60851 2.68058 5.34664C2.11647 6.09041 1.63074 6.89382 1.23697 7.73442C0.836075 8.5902 0.527807 9.49044 0.320771 10.4103C0.107954 11.3552 0 12.3306 0 13.3084C0 14.2022 0.0903429 15.0955 0.268474 15.9633C0.442035 16.809 0.701098 17.6413 1.03841 18.4372C1.3698 19.2189 1.7801 19.9736 2.25817 20.6806C2.73166 21.381 3.27587 22.041 3.8756 22.6419C4.4752 23.2427 5.13556 23.7899 5.83814 24.2681C6.54704 24.7507 7.30554 25.1674 8.09241 25.5068C8.89326 25.8522 9.73229 26.1211 10.5858 26.3059C11.4614 26.4956 12.3637 26.5991 13.2676 26.6139C13.291 26.6141 13.3145 26.6145 13.3379 26.615C13.3923 26.6159 13.4435 26.6167 13.4936 26.6167C14.7495 26.6167 15.9858 26.4479 17.1782 26.1144L15.7154 22.1905L12.4133 13.3333L12.4135 13.3335Z" fill="#D5B77A"/>
<path d="M22.5178 23.7685L22.5162 23.7642L22.5148 23.76L22.3662 23.3418L22.6932 23.0414L22.6965 23.0383C23.3563 22.4311 23.9569 21.7562 24.4812 21.0325C25.0098 20.3028 25.4643 19.5186 25.8323 18.7016C26.2069 17.8699 26.4948 16.997 26.6881 16.1074C26.8867 15.1936 26.9874 14.2519 26.9875 13.3084C26.9875 12.4278 26.8999 11.5474 26.727 10.6919C26.5584 9.85787 26.3067 9.03647 25.979 8.25026C25.657 7.47815 25.258 6.73128 24.7931 6.03076C24.3326 5.33681 23.8029 4.68141 23.2189 4.08282C22.6353 3.48463 21.9919 2.93761 21.3068 2.45694C20.6161 1.97237 19.8761 1.55066 19.1077 1.20348C18.3263 0.850532 17.5068 0.570778 16.6719 0.372143C15.8166 0.168539 14.934 0.0475312 14.0486 0.0123437L13.9782 0.00965763C13.8039 0.00334536 13.6456 0.00012207 13.4938 0.00012207C12.3505 0.00012207 11.22 0.140872 10.1235 0.419149L11.3651 3.76734C12.0631 3.61651 12.777 3.54023 13.4947 3.54023C14.4093 3.54023 15.2797 3.65681 16.1557 3.89667H16.1563L16.157 3.89707L16.1951 3.90755L16.1964 3.90795L16.1977 3.90836L16.2328 3.91816L16.2336 3.91843L16.2344 3.9187C17.8289 4.37036 19.299 5.22789 20.4855 6.39888C22.3556 8.24448 23.3855 10.6983 23.3855 13.3087C23.3855 15.2238 22.828 17.0735 21.7733 18.6573V18.6576L21.7729 18.6578L21.7657 18.6687L21.0331 19.7664L20.5757 18.5289L20.5712 18.5166L17.1443 9.27271L14.4055 11.6753L17.9855 21.3328L19.6934 25.9395L20.2864 27.5393L23.0251 25.1369L22.5195 23.7733L22.5178 23.769V23.7685Z" fill="#D5B77A"/>
</svg>
